<svg width="205" height="43" viewBox="0 0 205 43" fill="none" xmlns="http://www.w3.org/2000/svg">
    <path d="M14.4422 1.45453C11.7422 0.7625 8.96485 2.29437 8.24766 4.87437L4.67578 17.6064C3.95156 20.1864 5.55469 22.8403 8.25469 23.5323L21.5789 26.9455C24.2789 27.6375 27.0563 26.1056 27.7805 23.5256L31.3523 10.7936C32.0766 8.21359 30.4734 5.55969 27.7734 4.86766L14.4422 1.45453ZM16.0594 15.275C15.6305 14.6098 15.6164 13.77 16.0172 13.0914C16.418 12.4128 17.1773 11.9963 18 12.003C18.8156 12.0097 19.5609 12.4397 19.9547 13.125C20.3836 13.7902 20.3977 14.63 19.9969 15.3086C19.5961 15.9872 18.8367 16.4038 18.0141 16.397C17.1984 16.3903 16.4531 15.9603 16.0594 15.275ZM10.0688 16.1014C10.7648 15.6916 11.6438 15.6781 12.3539 16.0611C13.0641 16.4441 13.5 17.1697 13.493 17.9558C13.4859 18.7352 13.0359 19.4473 12.3188 19.8236C11.6227 20.2334 10.7438 20.2469 10.0336 19.8639C9.32344 19.4809 8.8875 18.7553 8.89453 17.9692C8.90156 17.1898 9.35156 16.4777 10.0688 16.1014ZM23.0766 22.5783C22.3805 22.9881 21.5016 23.0016 20.7914 22.6186C20.0813 22.2356 19.6453 21.51 19.6523 20.7239C19.6594 19.9445 20.1094 19.2323 20.8266 18.8561C21.5227 18.4462 22.4016 18.4328 23.1117 18.8158C23.8219 19.1988 24.2578 19.9244 24.2508 20.7105C24.2438 21.4898 23.7938 22.202 23.0766 22.5783ZM23.7094 8.57641C24.4055 8.16656 25.2844 8.15313 25.9945 8.53609C26.7047 8.91906 27.1406 9.64469 27.1336 10.4308C27.1266 11.2102 26.6766 11.9223 25.9594 12.2986C25.2633 12.7084 24.3844 12.7219 23.6742 12.3389C22.9641 11.9559 22.5281 11.2303 22.5352 10.4442C22.5422 9.66484 22.9922 8.95266 23.7094 8.57641ZM15.2016 9.54391C14.5055 9.95375 13.6266 9.96719 12.9164 9.58422C12.2063 9.20125 11.7703 8.47563 11.7773 7.68953C11.7844 6.91016 12.2344 6.19797 12.9516 5.82172C13.6477 5.41188 14.5266 5.39844 15.2367 5.78141C15.9469 6.16437 16.3828 6.89 16.3758 7.67609C16.3688 8.45547 15.9188 9.16766 15.2016 9.54391ZM33.8906 14.2L31.0359 24.3588C29.8266 28.6588 25.2 31.2119 20.7 30.063L18.007 29.3709V31.4C18.007 33.7717 20.025 35.7 22.507 35.7H36.007C38.4891 35.7 40.507 33.7717 40.507 31.4V18.5C40.507 16.1283 38.4891 14.2 36.007 14.2H33.8906Z" fill="#63E6BE"/>
    <path d="M45.8878 14.9876V11.8182H60.8203V14.9876H55.2539V30H51.4542V14.9876H45.8878ZM61.7924 30V16.3636H65.459V18.7429H65.601C65.8496 17.8965 66.2669 17.2573 66.8528 16.8253C67.4387 16.3873 68.1135 16.1683 68.877 16.1683C69.0663 16.1683 69.2705 16.1802 69.4895 16.2038C69.7085 16.2275 69.9009 16.2601 70.0666 16.3015V19.6573C69.889 19.604 69.6434 19.5567 69.3297 19.5153C69.016 19.4738 68.729 19.4531 68.4686 19.4531C67.9122 19.4531 67.4151 19.5745 66.9771 19.8171C66.545 20.0539 66.2018 20.3853 65.9473 20.8114C65.6987 21.2376 65.5744 21.7288 65.5744 22.2852V30H61.7924ZM75.5198 30.2575C74.6498 30.2575 73.8744 30.1065 73.1938 29.8047C72.5132 29.4969 71.9746 29.0442 71.578 28.4464C71.1874 27.8427 70.9921 27.091 70.9921 26.1914C70.9921 25.4338 71.1312 24.7976 71.4094 24.2827C71.6875 23.7678 72.0663 23.3535 72.5457 23.0398C73.0251 22.7261 73.5696 22.4893 74.1792 22.3295C74.7948 22.1697 75.4399 22.0573 76.1146 21.9922C76.9077 21.9093 77.5469 21.8324 78.0322 21.7614C78.5175 21.6844 78.8697 21.572 79.0887 21.424C79.3077 21.276 79.4172 21.0571 79.4172 20.767V20.7138C79.4172 20.1515 79.2396 19.7165 78.8845 19.4087C78.5353 19.101 78.0381 18.9471 77.393 18.9471C76.7124 18.9471 76.1708 19.098 75.7684 19.3999C75.3659 19.6958 75.0996 20.0687 74.9694 20.5185L71.4715 20.2344C71.6491 19.4058 71.9983 18.6896 72.5191 18.0859C73.0399 17.4763 73.7117 17.0088 74.5344 16.6832C75.363 16.3518 76.3218 16.1861 77.4108 16.1861C78.1684 16.1861 78.8934 16.2749 79.5858 16.4524C80.2842 16.63 80.9027 16.9052 81.4413 17.2781C81.9858 17.6509 82.4149 18.1303 82.7286 18.7163C83.0423 19.2963 83.1991 19.9917 83.1991 20.8026V30H79.6125V28.109H79.5059C79.287 28.5352 78.994 28.911 78.627 29.2365C78.2601 29.5561 77.8192 29.8076 77.3042 29.9911C76.7893 30.1687 76.1945 30.2575 75.5198 30.2575ZM76.6029 27.6474C77.1592 27.6474 77.6505 27.5379 78.0766 27.3189C78.5028 27.094 78.8372 26.7921 79.0798 26.4134C79.3225 26.0346 79.4438 25.6055 79.4438 25.1261V23.679C79.3254 23.7559 79.1627 23.8269 78.9555 23.892C78.7543 23.9512 78.5264 24.0075 78.2719 24.0607C78.0174 24.1081 77.7629 24.1525 77.5084 24.1939C77.2539 24.2294 77.0231 24.262 76.816 24.2915C76.3721 24.3567 75.9844 24.4602 75.653 24.6023C75.3215 24.7443 75.0641 24.9367 74.8806 25.1793C74.6971 25.4161 74.6054 25.712 74.6054 26.0671C74.6054 26.582 74.7918 26.9756 75.1647 27.2479C75.5435 27.5142 76.0229 27.6474 76.6029 27.6474ZM98.358 16.3636L93.5906 30H89.3293L84.5619 16.3636H88.5569L91.3889 26.1204H91.531L94.3541 16.3636H98.358ZM106.068 30.2663C104.666 30.2663 103.458 29.9822 102.446 29.4141C101.44 28.84 100.665 28.0291 100.12 26.9815C99.5758 25.928 99.3035 24.6822 99.3035 23.244C99.3035 21.8413 99.5758 20.6102 100.12 19.5508C100.665 18.4914 101.431 17.6657 102.42 17.0739C103.414 16.482 104.58 16.1861 105.918 16.1861C106.817 16.1861 107.655 16.3311 108.43 16.6211C109.211 16.9052 109.892 17.3343 110.472 17.9084C111.058 18.4825 111.514 19.2045 111.839 20.0746C112.165 20.9387 112.327 21.9508 112.327 23.1108V24.1495H100.813V21.8058H108.767C108.767 21.2612 108.649 20.7789 108.412 20.3587C108.175 19.9384 107.847 19.61 107.427 19.3732C107.012 19.1306 106.53 19.0092 105.98 19.0092C105.406 19.0092 104.897 19.1424 104.453 19.4087C104.015 19.6692 103.671 20.0213 103.423 20.4652C103.174 20.9032 103.047 21.3915 103.041 21.93V24.1584C103.041 24.8331 103.165 25.4161 103.414 25.9073C103.668 26.3986 104.027 26.7773 104.488 27.0437C104.95 27.31 105.497 27.4432 106.131 27.4432C106.551 27.4432 106.936 27.384 107.285 27.2656C107.634 27.1473 107.933 26.9697 108.181 26.733C108.43 26.4962 108.619 26.2062 108.75 25.8629L112.247 26.0938C112.07 26.9342 111.706 27.6681 111.155 28.2955C110.611 28.9169 109.907 29.4022 109.043 29.7514C108.184 30.0947 107.193 30.2663 106.068 30.2663ZM118.577 11.8182V30H114.795V11.8182H118.577ZM127.464 30V11.8182H134.637C136.016 11.8182 137.191 12.0816 138.162 12.6083C139.132 13.1291 139.872 13.8542 140.381 14.7834C140.896 15.7067 141.154 16.772 141.154 17.9794C141.154 19.1868 140.893 20.2521 140.372 21.1754C139.852 22.0987 139.097 22.8178 138.109 23.3327C137.126 23.8477 135.936 24.1051 134.54 24.1051H129.968V21.0245H133.918C134.658 21.0245 135.268 20.8973 135.747 20.6428C136.232 20.3823 136.593 20.0243 136.83 19.5685C137.073 19.1069 137.194 18.5772 137.194 17.9794C137.194 17.3757 137.073 16.849 136.83 16.3991C136.593 15.9434 136.232 15.5913 135.747 15.3427C135.262 15.0882 134.646 14.9609 133.9 14.9609H131.308V30H127.464ZM147.362 11.8182V30H143.58V11.8182H147.362ZM154.28 30.2575C153.41 30.2575 152.634 30.1065 151.954 29.8047C151.273 29.4969 150.734 29.0442 150.338 28.4464C149.947 27.8427 149.752 27.091 149.752 26.1914C149.752 25.4338 149.891 24.7976 150.169 24.2827C150.447 23.7678 150.826 23.3535 151.305 23.0398C151.785 22.7261 152.329 22.4893 152.939 22.3295C153.555 22.1697 154.2 22.0573 154.874 21.9922C155.667 21.9093 156.307 21.8324 156.792 21.7614C157.277 21.6844 157.629 21.572 157.848 21.424C158.067 21.276 158.177 21.0571 158.177 20.767V20.7138C158.177 20.1515 157.999 19.7165 157.644 19.4087C157.295 19.101 156.798 18.9471 156.153 18.9471C155.472 18.9471 154.931 19.098 154.528 19.3999C154.126 19.6958 153.859 20.0687 153.729 20.5185L150.231 20.2344C150.409 19.4058 150.758 18.6896 151.279 18.0859C151.8 17.4763 152.471 17.0088 153.294 16.6832C154.123 16.3518 155.082 16.1861 156.171 16.1861C156.928 16.1861 157.653 16.2749 158.346 16.4524C159.044 16.63 159.662 16.9052 160.201 17.2781C160.746 17.6509 161.175 18.1303 161.488 18.7163C161.802 19.2963 161.959 19.9917 161.959 20.8026V30H158.372V28.109H158.266C158.047 28.5352 157.754 28.911 157.387 29.2365C157.02 29.5561 156.579 29.8076 156.064 29.9911C155.549 30.1687 154.954 30.2575 154.28 30.2575ZM155.363 27.6474C155.919 27.6474 156.41 27.5379 156.836 27.3189C157.263 27.094 157.597 26.7921 157.84 26.4134C158.082 26.0346 158.204 25.6055 158.204 25.1261V23.679C158.085 23.7559 157.922 23.8269 157.715 23.892C157.514 23.9512 157.286 24.0075 157.032 24.0607C156.777 24.1081 156.523 24.1525 156.268 24.1939C156.014 24.2294 155.783 24.262 155.576 24.2915C155.132 24.3567 154.744 24.4602 154.413 24.6023C154.081 24.7443 153.824 24.9367 153.64 25.1793C153.457 25.4161 153.365 25.712 153.365 26.0671C153.365 26.582 153.552 26.9756 153.924 27.2479C154.303 27.5142 154.783 27.6474 155.363 27.6474ZM168.675 22.1165V30H164.893V16.3636H168.497V18.7695H168.657C168.959 17.9764 169.465 17.3491 170.175 16.8874C170.886 16.4199 171.747 16.1861 172.759 16.1861C173.706 16.1861 174.531 16.3932 175.236 16.8075C175.94 17.2218 176.487 17.8137 176.878 18.5831C177.269 19.3466 177.464 20.258 177.464 21.3175V30H173.682V21.9922C173.688 21.1577 173.475 20.5066 173.043 20.0391C172.611 19.5656 172.016 19.3288 171.258 19.3288C170.749 19.3288 170.3 19.4383 169.909 19.6573C169.524 19.8763 169.222 20.1959 169.003 20.6161C168.79 21.0304 168.681 21.5305 168.675 22.1165ZM186.659 30.2663C185.257 30.2663 184.049 29.9822 183.037 29.4141C182.031 28.84 181.256 28.0291 180.711 26.9815C180.167 25.928 179.894 24.6822 179.894 23.244C179.894 21.8413 180.167 20.6102 180.711 19.5508C181.256 18.4914 182.022 17.6657 183.01 17.0739C184.005 16.482 185.171 16.1861 186.508 16.1861C187.408 16.1861 188.245 16.3311 189.021 16.6211C189.802 16.9052 190.483 17.3343 191.063 17.9084C191.649 18.4825 192.104 19.2045 192.43 20.0746C192.755 20.9387 192.918 21.9508 192.918 23.1108V24.1495H181.404V21.8058H189.358C189.358 21.2612 189.24 20.7789 189.003 20.3587C188.766 19.9384 188.438 19.61 188.018 19.3732C187.603 19.1306 187.121 19.0092 186.57 19.0092C185.996 19.0092 185.487 19.1424 185.044 19.4087C184.606 19.6692 184.262 20.0213 184.014 20.4652C183.765 20.9032 183.638 21.3915 183.632 21.93V24.1584C183.632 24.8331 183.756 25.4161 184.005 25.9073C184.259 26.3986 184.617 26.7773 185.079 27.0437C185.541 27.31 186.088 27.4432 186.721 27.4432C187.142 27.4432 187.526 27.384 187.876 27.2656C188.225 27.1473 188.524 26.9697 188.772 26.733C189.021 26.4962 189.21 26.2062 189.34 25.8629L192.838 26.0938C192.661 26.9342 192.297 27.6681 191.746 28.2955C191.202 28.9169 190.497 29.4022 189.633 29.7514C188.775 30.0947 187.784 30.2663 186.659 30.2663ZM195.386 30V16.3636H199.053V18.7429H199.195C199.443 17.8965 199.861 17.2573 200.447 16.8253C201.032 16.3873 201.707 16.1683 202.471 16.1683C202.66 16.1683 202.864 16.1802 203.083 16.2038C203.302 16.2275 203.495 16.2601 203.66 16.3015V19.6573C203.483 19.604 203.237 19.5567 202.923 19.5153C202.61 19.4738 202.323 19.4531 202.062 19.4531C201.506 19.4531 201.009 19.5745 200.571 19.8171C200.139 20.0539 199.796 20.3853 199.541 20.8114C199.292 21.2376 199.168 21.7288 199.168 22.2852V30H195.386Z" fill="#63E6BE"/>
</svg>
