<svg width="267" height="43" viewBox="0 0 267 43" fill="none" xmlns="http://www.w3.org/2000/svg">
    <path d="M14.9404 3.16624C12.2404 2.4742 9.46303 4.00608 8.74584 6.58608L5.17397 19.3181C4.44975 21.8981 6.05287 24.552 8.75287 25.244L22.0771 28.6572C24.7771 29.3492 27.5544 27.8173 28.2787 25.2373L31.8505 12.5053C32.5747 9.9253 30.9716 7.27139 28.2716 6.57936L14.9404 3.16624ZM16.5576 16.9867C16.1287 16.3215 16.1146 15.4817 16.5154 14.8031C16.9162 14.1245 17.6755 13.708 18.4982 13.7147C19.3138 13.7214 20.0591 14.1514 20.4529 14.8367C20.8818 15.5019 20.8958 16.3417 20.4951 17.0203C20.0943 17.6989 19.3349 18.1155 18.5122 18.1087C17.6966 18.102 16.9513 17.672 16.5576 16.9867ZM10.5669 17.8131C11.263 17.4033 12.1419 17.3898 12.8521 17.7728C13.5622 18.1558 13.9982 18.8814 13.9912 19.6675C13.9841 20.4469 13.5341 21.159 12.8169 21.5353C12.1208 21.9451 11.2419 21.9586 10.5318 21.5756C9.82162 21.1926 9.38569 20.467 9.39272 19.6809C9.39975 18.9015 9.84975 18.1894 10.5669 17.8131ZM23.5748 24.29C22.8787 24.6998 21.9997 24.7133 21.2896 24.3303C20.5794 23.9473 20.1435 23.2217 20.1505 22.4356C20.1576 21.6562 20.6076 20.944 21.3247 20.5678C22.0208 20.158 22.8997 20.1445 23.6099 20.5275C24.3201 20.9105 24.756 21.6361 24.749 22.4222C24.7419 23.2015 24.2919 23.9137 23.5748 24.29ZM24.2076 10.2881C24.9037 9.87827 25.7826 9.86483 26.4927 10.2478C27.2029 10.6308 27.6388 11.3564 27.6318 12.1425C27.6247 12.9219 27.1747 13.634 26.4576 14.0103C25.7615 14.4201 24.8826 14.4336 24.1724 14.0506C23.4622 13.6676 23.0263 12.942 23.0333 12.1559C23.0404 11.3765 23.4904 10.6644 24.2076 10.2881ZM15.6997 11.2556C15.0037 11.6655 14.1247 11.6789 13.4146 11.2959C12.7044 10.913 12.2685 10.1873 12.2755 9.40124C12.2826 8.62186 12.7326 7.90967 13.4497 7.53342C14.1458 7.12358 15.0247 7.11014 15.7349 7.49311C16.4451 7.87608 16.881 8.6017 16.874 9.3878C16.8669 10.1672 16.4169 10.8794 15.6997 11.2556ZM34.3888 15.9117L31.5341 26.0705C30.3247 30.3705 25.6982 32.9236 21.1982 31.7747L18.5052 31.0826V33.1117C18.5052 35.4834 20.5232 37.4117 23.0052 37.4117H36.5052C38.9872 37.4117 41.0052 35.4834 41.0052 33.1117V20.2117C41.0052 17.84 38.9872 15.9117 36.5052 15.9117H34.3888Z" fill="#13C791"/>
    <path d="M45.8878 14.9876V11.8182H60.8203V14.9876H55.2539V30H51.4542V14.9876H45.8878ZM63.2795 30V11.8182H70.4528C71.8259 11.8182 72.9978 12.0638 73.9684 12.555C74.945 13.0404 75.6877 13.7299 76.1967 14.6236C76.7116 15.5114 76.9691 16.556 76.9691 17.7575C76.9691 18.9648 76.7087 20.0036 76.1879 20.8736C75.667 21.7377 74.9124 22.4006 73.924 22.8622C72.9415 23.3239 71.7519 23.5547 70.3551 23.5547H65.5522V20.4652H69.7337C70.4676 20.4652 71.0772 20.3646 71.5625 20.1634C72.0478 19.9621 72.4089 19.6603 72.6456 19.2578C72.8883 18.8554 73.0096 18.3552 73.0096 17.7575C73.0096 17.1538 72.8883 16.6448 72.6456 16.2305C72.4089 15.8162 72.0449 15.5025 71.5536 15.2894C71.0683 15.0704 70.4557 14.9609 69.7159 14.9609H67.1236V30H63.2795ZM73.0984 21.7259L77.6172 30H73.3736L68.9524 21.7259H73.0984ZM82.8196 30H78.7003L84.9769 11.8182H89.9308L96.1985 30H92.0792L87.5249 15.973H87.3828L82.8196 30ZM82.5621 22.8533H92.2923V25.854H82.5621V22.8533ZM99.4012 11.8182L103.796 25.6321H103.964L108.368 11.8182H112.629L106.361 30H101.408L95.1309 11.8182H99.4012ZM114.818 30V11.8182H127.069V14.9876H118.662V19.32H126.439V22.4893H118.662V26.8306H127.104V30H114.818ZM130.125 30V11.8182H133.969V26.8306H141.764V30H130.125ZM150.096 30V11.8182H157.269C158.648 11.8182 159.823 12.0816 160.794 12.6083C161.764 13.1291 162.504 13.8542 163.013 14.7834C163.528 15.7067 163.786 16.772 163.786 17.9794C163.786 19.1868 163.525 20.2521 163.004 21.1754C162.483 22.0987 161.729 22.8178 160.74 23.3327C159.758 23.8477 158.568 24.1051 157.172 24.1051H152.599V21.0245H156.55C157.29 21.0245 157.9 20.8973 158.379 20.6428C158.864 20.3823 159.225 20.0243 159.462 19.5685C159.705 19.1069 159.826 18.5772 159.826 17.9794C159.826 17.3757 159.705 16.849 159.462 16.3991C159.225 15.9434 158.864 15.5913 158.379 15.3427C157.894 15.0882 157.278 14.9609 156.532 14.9609H153.94V30H150.096ZM166.282 30V11.8182H170.127V26.8306H177.921V30H166.282ZM184.065 30H179.945L186.222 11.8182H191.176L197.444 30H193.324L188.77 15.973H188.628L184.065 30ZM183.807 22.8533H193.537V25.854H183.807V22.8533ZM214.84 11.8182V30H211.519L203.609 18.5565H203.476V30H199.632V11.8182H203.006L210.854 23.2528H211.013V11.8182H214.84ZM233.224 11.8182V30H229.903L221.993 18.5565H221.86V30H218.016V11.8182H221.389L229.237 23.2528H229.397V11.8182H233.224ZM236.4 30V11.8182H248.651V14.9876H240.244V19.32H248.021V22.4893H240.244V26.8306H248.687V30H236.4ZM251.707 30V11.8182H258.881C260.254 11.8182 261.425 12.0638 262.396 12.555C263.373 13.0404 264.115 13.7299 264.624 14.6236C265.139 15.5114 265.397 16.556 265.397 17.7575C265.397 18.9648 265.136 20.0036 264.616 20.8736C264.095 21.7377 263.34 22.4006 262.352 22.8622C261.369 23.3239 260.18 23.5547 258.783 23.5547H253.98V20.4652H258.161C258.895 20.4652 259.505 20.3646 259.99 20.1634C260.476 19.9621 260.837 19.6603 261.073 19.2578C261.316 18.8554 261.437 18.3552 261.437 17.7575C261.437 17.1538 261.316 16.6448 261.073 16.2305C260.837 15.8162 260.473 15.5025 259.981 15.2894C259.496 15.0704 258.883 14.9609 258.144 14.9609H255.551V30H251.707ZM261.526 21.7259L266.045 30H261.801L257.38 21.7259H261.526Z" fill="#13C791"/>
</svg>
