<svg width="36" height="35" viewBox="0 0 36 35" fill="none" xmlns="http://www.w3.org/2000/svg">
    <path d="M9.94037 0.166236C7.24037 -0.525796 4.46303 1.00608 3.74584 3.58608L0.173967 16.3181C-0.550251 18.8981 1.05287 21.552 3.75287 22.244L17.0771 25.6572C19.7771 26.3492 22.5544 24.8173 23.2787 22.2373L26.8505 9.5053C27.5747 6.9253 25.9716 4.27139 23.2716 3.57936L9.94037 0.166236ZM11.5576 13.9867C11.1287 13.3215 11.1146 12.4817 11.5154 11.8031C11.9162 11.1245 12.6755 10.708 13.4982 10.7147C14.3138 10.7214 15.0591 11.1514 15.4529 11.8367C15.8818 12.5019 15.8958 13.3417 15.4951 14.0203C15.0943 14.6989 14.3349 15.1155 13.5122 15.1087C12.6966 15.102 11.9513 14.672 11.5576 13.9867ZM5.56694 14.8131C6.26303 14.4033 7.14194 14.3898 7.85209 14.7728C8.56225 15.1558 8.99819 15.8814 8.99115 16.6675C8.98412 17.4469 8.53412 18.159 7.81694 18.5353C7.12084 18.9451 6.24194 18.9586 5.53178 18.5756C4.82162 18.1926 4.38569 17.467 4.39272 16.6809C4.39975 15.9015 4.84975 15.1894 5.56694 14.8131ZM18.5748 21.29C17.8787 21.6998 16.9997 21.7133 16.2896 21.3303C15.5794 20.9473 15.1435 20.2217 15.1505 19.4356C15.1576 18.6562 15.6076 17.944 16.3247 17.5678C17.0208 17.158 17.8998 17.1445 18.6099 17.5275C19.3201 17.9105 19.756 18.6361 19.749 19.4222C19.7419 20.2015 19.2919 20.9137 18.5748 21.29ZM19.2076 7.28811C19.9037 6.87827 20.7826 6.86483 21.4927 7.2478C22.2029 7.63077 22.6388 8.35639 22.6318 9.14248C22.6247 9.92186 22.1748 10.634 21.4576 11.0103C20.7615 11.4201 19.8826 11.4336 19.1724 11.0506C18.4623 10.6676 18.0263 9.94202 18.0333 9.15592C18.0404 8.37655 18.4904 7.66436 19.2076 7.28811ZM10.6997 8.25561C10.0037 8.66545 9.12475 8.67889 8.41459 8.29592C7.70444 7.91295 7.2685 7.18733 7.27553 6.40124C7.28256 5.62186 7.73256 4.90967 8.44975 4.53342C9.14584 4.12358 10.0247 4.11014 10.7349 4.49311C11.4451 4.87608 11.881 5.6017 11.874 6.3878C11.8669 7.16717 11.4169 7.87936 10.6997 8.25561ZM29.3888 12.9117L26.5341 23.0705C25.3247 27.3705 20.6982 29.9236 16.1982 28.7747L13.5052 28.0826V30.1117C13.5052 32.4834 15.5232 34.4117 18.0052 34.4117H31.5052C33.9872 34.4117 36.0052 32.4834 36.0052 30.1117V17.2117C36.0052 14.84 33.9872 12.9117 31.5052 12.9117H29.3888Z" fill="#13C791FF"/>
</svg>
