<svg width="44" height="43" viewBox="0 0 44 43" fill="none" xmlns="http://www.w3.org/2000/svg">
    <path d="M14.1782 5.16425C11.6852 4.48049 9.12082 5.99404 8.45862 8.54317L5.16063 21.1229C4.49194 23.672 5.97214 26.2942 8.46511 26.9779L20.7677 30.3502C23.2606 31.034 25.825 29.5204 26.4937 26.9713L29.7917 14.3916C30.4604 11.8424 28.9802 9.22029 26.4872 8.53654L14.1782 5.16425ZM15.6714 18.8194C15.2753 18.1622 15.2624 17.3324 15.6324 16.6619C16.0025 15.9914 16.7036 15.5798 17.4632 15.5865C18.2163 15.5931 18.9044 16.018 19.268 16.6951C19.664 17.3523 19.677 18.1821 19.3069 18.8526C18.9369 19.523 18.2357 19.9346 17.4762 19.928C16.7231 19.9213 16.0349 19.4965 15.6714 18.8194ZM10.1401 19.6359C10.7828 19.2309 11.5943 19.2177 12.25 19.5961C12.9057 19.9744 13.3082 20.6914 13.3017 21.4681C13.2952 22.2381 12.8798 22.9418 12.2176 23.3135C11.5748 23.7185 10.7633 23.7318 10.1076 23.3534C9.45192 22.975 9.04941 22.258 9.0559 21.4814C9.06239 20.7113 9.47788 20.0076 10.1401 19.6359ZM22.1505 26.0353C21.5078 26.4402 20.6963 26.4535 20.0406 26.0751C19.3849 25.6967 18.9823 24.9798 18.9888 24.2031C18.9953 23.433 19.4108 22.7294 20.073 22.3576C20.7157 21.9527 21.5273 21.9394 22.183 22.3178C22.8387 22.6962 23.2412 23.4131 23.2347 24.1898C23.2282 24.9599 22.8127 25.6635 22.1505 26.0353ZM22.7348 12.2009C23.3775 11.796 24.189 11.7827 24.8447 12.1611C25.5004 12.5395 25.9029 13.2564 25.8964 14.0331C25.89 14.8032 25.4745 15.5068 24.8123 15.8786C24.1695 16.2835 23.358 16.2968 22.7023 15.9184C22.0466 15.54 21.6441 14.8231 21.6506 14.0464C21.6571 13.2763 22.0726 12.5727 22.7348 12.2009ZM14.8793 13.1568C14.2366 13.5618 13.4251 13.5751 12.7694 13.1967C12.1137 12.8183 11.7112 12.1013 11.7177 11.3247C11.7242 10.5546 12.1397 9.85093 12.8018 9.47919C13.4446 9.07424 14.2561 9.06097 14.9118 9.43935C15.5675 9.81774 15.97 10.5347 15.9635 11.3114C15.957 12.0814 15.5415 12.7851 14.8793 13.1568ZM32.1354 17.7572L29.4996 27.7944C28.3829 32.043 24.1111 34.5656 19.9562 33.4304L17.4697 32.7467V34.7514C17.4697 37.0948 19.3329 39 21.6246 39H34.0895C36.3812 39 38.2444 37.0948 38.2444 34.7514V22.0058C38.2444 19.6624 36.3812 17.7572 34.0895 17.7572H32.1354Z" fill="white"/>
</svg>
